<svg width="25" height="25" viewBox="0 0 25 25" fill="none" xmlns="http://www.w3.org/2000/svg">
<path d="M6.514 16.9072C11.1698 18.7242 15.1318 19.0781 19.6217 16.25C19.5888 16.2993 18.7006 17.6151 16.3651 18.2894C16.8585 18.9638 17.5328 19.7368 17.5328 19.7368C19.0296 19.7368 20.4934 19.3091 21.7598 18.4868C22.7467 17.8289 23.3058 16.694 23.1907 15.5098C22.9933 13.4868 22.5163 11.5131 21.7763 9.62168C20.8388 7.15459 18.5855 5.44404 15.9703 5.19731C15.7401 5.18086 15.5756 5.18086 15.4769 5.18086L15.2138 5.44399C18.2237 6.29927 19.7204 7.63149 19.7533 7.68086C15.1315 5.34531 9.67103 5.31245 5.01639 7.58218C5.01639 7.58218 6.49666 6.11836 9.76966 5.34531L9.5723 5.14795C9.22689 5.14795 8.89793 5.18086 8.55257 5.23018C6.1348 5.64136 4.1118 7.30254 3.24007 9.58872C2.48348 11.5624 1.99007 13.6348 1.80916 15.74C1.71048 16.8584 2.2368 17.9604 3.15785 18.6019C4.37494 19.4078 5.8223 19.8354 7.28612 19.8354C7.28612 19.8354 7.87821 19.0624 8.47035 18.3716C6.24994 17.7137 5.34535 16.3979 5.32889 16.3486L5.74676 16.562C5.99657 16.6896 6.25267 16.8052 6.514 16.9072ZM9.09535 15.4769C8.02625 15.444 7.18744 14.5394 7.22035 13.4539C7.25326 12.4341 8.07562 11.6118 9.09535 11.5789C10.1644 11.6118 11.0033 12.5164 10.9703 13.6019C10.921 14.6217 10.1151 15.444 9.09535 15.4769ZM15.8058 15.4769C14.7368 15.444 13.8979 14.5394 13.9308 13.4539C13.9638 12.4341 14.7861 11.6118 15.8058 11.5789C16.8749 11.6118 17.7138 12.5164 17.6808 13.6019C17.648 14.6217 16.8256 15.444 15.8058 15.4769Z" fill="white"/>
</svg>
