<svg width="24" height="24" viewBox="0 0 24 24" fill="none" xmlns="http://www.w3.org/2000/svg">
<path d="M23.7446 13.8523L21.5482 4.42071C21.3923 3.79699 20.9671 3.28451 20.3825 3.01596C19.7979 2.74601 19.133 2.75703 18.5574 3.04549L17.3126 3.66781C16.9651 3.84162 16.8242 4.26405 16.998 4.61163C17.1725 4.95921 17.5949 5.09796 17.9418 4.92626L19.1866 4.30394C19.3775 4.20916 19.5994 4.20504 19.7952 4.29363C19.9903 4.38363 20.1318 4.55463 20.1812 4.75113L22.0451 12.7551C21.993 12.7513 21.943 12.738 21.8903 12.738H14.7711C14.1363 12.738 13.5415 13.0196 13.1389 13.5107C12.9594 13.7296 12.8364 13.9804 12.7574 14.2435C12.2575 14.1332 11.7426 14.1332 11.2427 14.2435C11.1636 13.9804 11.0407 13.7295 10.8611 13.5107C10.4586 13.0196 9.8637 12.738 9.22901 12.738H2.1097C2.05701 12.738 2.0069 12.7513 1.95492 12.7551L3.81604 4.76276C3.86821 4.55463 4.00977 4.38359 4.20482 4.29359C4.40061 4.20429 4.62111 4.20841 4.81344 4.3039L6.05816 4.92621C6.40574 5.09796 6.82752 4.95916 7.00198 4.61158C7.1758 4.26401 7.03494 3.84152 6.68736 3.66776L5.44269 3.04545C4.86772 2.75834 4.2021 2.74732 3.61752 3.01592C3.03295 3.28446 2.6077 3.79699 2.44902 4.43238L0.255326 13.8525C0.0245135 14.2808 -0.0572363 14.7753 0.0406385 15.2625L0.658169 18.3516C0.985824 19.9899 2.4366 21.179 4.10722 21.179H7.23134C8.90192 21.179 10.3527 19.9899 10.6804 18.3516L11.2053 15.7258C11.7173 15.5164 12.2826 15.5164 12.7947 15.7258L13.3196 18.3516C13.6473 19.9899 15.098 21.179 16.7687 21.179H19.8928C21.5633 21.179 23.0142 19.9899 23.3418 18.3516L23.9594 15.2625C24.0572 14.7752 23.9755 14.2806 23.7446 13.8523Z" fill="white"/>
</svg>
