<svg width="24" height="20" viewBox="0 0 24 20" fill="none" xmlns="http://www.w3.org/2000/svg">
<path d="M23.7446 11.8523L21.5482 2.42071C21.3923 1.79699 20.9671 1.28451 20.3825 1.01596C19.7979 0.746011 19.133 0.757026 18.5574 1.04549L17.3126 1.66781C16.9651 1.84162 16.8242 2.26405 16.998 2.61163C17.1725 2.95921 17.5949 3.09796 17.9418 2.92626L19.1866 2.30394C19.3775 2.20916 19.5994 2.20504 19.7952 2.29363C19.9903 2.38363 20.1318 2.55463 20.1812 2.75113L22.0451 10.7551C21.993 10.7513 21.943 10.738 21.8903 10.738H14.7711C14.1363 10.738 13.5415 11.0196 13.1389 11.5107C12.9594 11.7296 12.8364 11.9804 12.7574 12.2435C12.2575 12.1332 11.7426 12.1332 11.2427 12.2435C11.1636 11.9804 11.0407 11.7295 10.8611 11.5107C10.4586 11.0196 9.8637 10.738 9.22901 10.738H2.1097C2.05701 10.738 2.0069 10.7513 1.95492 10.7551L3.81604 2.76276C3.86821 2.55463 4.00977 2.38359 4.20482 2.29359C4.40061 2.20429 4.62111 2.20841 4.81344 2.3039L6.05816 2.92621C6.40574 3.09796 6.82752 2.95916 7.00198 2.61158C7.1758 2.26401 7.03494 1.84152 6.68736 1.66776L5.44269 1.04545C4.86772 0.758339 4.2021 0.747323 3.61752 1.01592C3.03295 1.28446 2.6077 1.79699 2.44902 2.43238L0.255326 11.8525C0.0245135 12.2808 -0.0572363 12.7753 0.0406385 13.2625L0.658169 16.3516C0.985824 17.9899 2.4366 19.179 4.10722 19.179H7.23134C8.90192 19.179 10.3527 17.9899 10.6804 16.3516L11.2053 13.7258C11.7173 13.5164 12.2826 13.5164 12.7947 13.7258L13.3196 16.3516C13.6473 17.9899 15.098 19.179 16.7687 19.179H19.8928C21.5633 19.179 23.0142 17.9899 23.3418 16.3516L23.9594 13.2625C24.0572 12.7752 23.9755 12.2806 23.7446 11.8523Z" fill="black"/>
</svg>
