<svg width="18" height="18" viewBox="0 0 18 18" fill="none" xmlns="http://www.w3.org/2000/svg">
<path d="M17.6945 7.59371L13.8013 11.3887L14.7207 16.7487C14.7607 16.9831 14.6645 17.22 14.472 17.36C14.3632 17.4393 14.2338 17.4793 14.1045 17.4793C14.0051 17.4793 13.9051 17.4556 13.8138 17.4075L9.0001 14.8768L4.18697 17.4068C3.97697 17.5181 3.72135 17.5 3.52885 17.3593C3.33635 17.2193 3.2401 16.9825 3.2801 16.7481L4.19947 11.3881L0.305723 7.59371C0.135723 7.42746 0.0738481 7.17871 0.147598 6.95309C0.221348 6.72746 0.416973 6.56184 0.652598 6.52746L6.03322 5.74621L8.43947 0.869961C8.6501 0.443086 9.3501 0.443086 9.56072 0.869961L11.967 5.74621L17.3476 6.52746C17.5832 6.56184 17.7788 6.72684 17.8526 6.95309C17.9263 7.17934 17.8645 7.42684 17.6945 7.59371Z" fill="black"/>
</svg>
